#!OML:ASF I:\Actors\actors\Patient Classification 2\Patient 1\Session 1\actor1.ASF
:FULLY-SPECIFIED
:DEGREES
272
root -0.700207 18.7197 5.83438 2.13995 -2.41761 -2.13496
lowerback 5.99919 0.565528 2.57141
upperback -2.73808 0.969069 -0.139474
thorax -6.17873 0.370466 -1.69822
lowerneck -10.7578 -8.15079 -3.79577
upperneck 8.78933 -11.0482 5.76094
head 4.92692 -5.20337 1.53361
rclavicle -8.2154e-015 1.98785e-015
rhumerus 6.10243 4.13051 -46.8528
rradius 106.192
rwrist 2.20639
rhand -32.2424 -37.8078
rfingers 7.12502
rthumb -5.48278 -67.7169
lclavicle -8.2154e-015 1.98785e-015
lhumerus -46.6816 -5.83314 90.2902
lradius 50.0948
lwrist -0.123877
lhand -2.3311 -24.2637
lfingers 7.12502
lthumb 23.3558 4.33932
rfemur 0 0 0
rtibia 0
rfoot 0 0
rtoes 0
lfemur -4.75059 -5.4597 -12.0177
ltibia 21.1971
lfoot -22.3085 13.8604
ltoes -55.5503
273
root -0.706116 18.7185 5.8355 2.12239 -2.38533 -2.13132
lowerback 5.92326 0.517837 2.5678
upperback -2.67355 0.900933 -0.153823
thorax -6.0701 0.338966 -1.7019
lowerneck -10.7951 -8.1203 -3.94243
upperneck 8.84152 -11.0192 6.02396
head 4.97176 -5.17596 1.63518
rclavicle -7.22458e-015 9.74045e-015
rhumerus 6.01154 4.63853 -46.3761
rradius 106.356
rwrist 2.18157
rhand -32.0639 -38.2961
rfingers 7.12502
rthumb -5.31045 -68.2096
lclavicle -7.22458e-015 9.74045e-015
lhumerus -46.6722 -5.65903 90.1489
lradius 50.3013
lwrist 0.0734407
lhand -2.62177 -24.4616
lfingers 7.12502
lthumb 23.0769 4.17652
rfemur 0 0 0
rtibia 0
rfoot 0 0
rtoes 0
lfemur -4.72973 -5.47611 -11.9941
ltibia 21.1958
lfoot -22.3226 13.7756
ltoes -55.4149
274
root -0.711022 18.718 5.8349 2.09847 -2.44706 -2.11428
lowerback 5.86451 0.495601 2.47778
upperback -2.58386 0.863079 -0.109936
thorax -5.94527 0.327447 -1.59984
lowerneck -10.8424 -8.07403 -4.14762
upperneck 8.85047 -10.9555 6.27588
head 5.00544 -5.1346 1.74613
rclavicle -1.33232e-014 1.39149e-015
rhumerus 6.02757 4.85897 -46.2354
rradius 106.397
rwrist 2.21801
rhand -32.8816 -38.9842
rfingers 7.12502
rthumb -6.0999 -68.8764
lclavicle -1.33232e-014 1.39149e-015
lhumerus -46.5342 -5.49918 90.1267
lradius 50.3782
lwrist 0.182895
lhand -2.75429 -24.5013
lfingers 7.12502
lthumb 22.9498 4.15275
rfemur 0 0 0
rtibia 0
rfoot 0 0
rtoes 0
lfemur -4.68385 -5.42226 -11.9989
ltibia 21.1779
lfoot -22.3156 13.8111
ltoes -55.4314
275
root -0.714387 18.717 5.83056 2.06194 -2.57481 -2.08962
lowerback 5.90826 0.50542 2.34464
upperback -2.53392 0.869079 -0.0473795
thorax -5.91988 0.337648 -1.46073
lowerneck -10.8103 -8.01624 -4.24871
upperneck 8.82682 -10.871 6.35485
head 4.99856 -5.09287 1.79474
rclavicle 4.51925e-015 1.03368e-014
rhumerus 6.02269 4.82461 -46.3974
rradius 106.355
rwrist 2.29696
rhand -32.7598 -39.2162
rfingers 7.12502
rthumb -5.9823 -69.1118
lclavicle 4.51925e-015 1.03368e-014
lhumerus -46.4223 -5.49039 90.2052
lradius 50.3886
lwrist 0.2712
lhand -2.74065 -24.3452
lfingers 7.12502
lthumb 22.9628 4.30719
rfemur 0 0 0
rtibia 0
rfoot 0 0
rtoes 0
lfemur -4.62266 -5.37172 -12.0293
ltibia 21.1574
lfoot -22.3013 13.8846
ltoes -55.4615
276
root -0.716428 18.7162 5.8257 2.01351 -2.7025 -2.05975
lowerback 6.01147 0.538142 2.23525
upperback -2.51965 0.908508 -0.0059277
thorax -5.9643 0.361697 -1.36175
lowerneck -10.7516 -7.97361 -4.23515
upperneck 8.84896 -10.8069 6.26021
head 4.98599 -5.06791 1.77165
rclavicle -8.60365e-016 1.2921e-014
rhumerus 5.93098 4.62674 -46.7804
rradius 106.298
rwrist 2.39173
rhand -32.5846 -39.4512
rfingers 7.12502
rthumb -5.81318 -69.3515
lclavicle -8.60365e-016 1.2921e-014
lhumerus -46.3747 -5.61334 90.3165
lradius 50.3588
lwrist 0.300764
lhand -2.60497 -24.213
lfingers 7.12502
lthumb 23.093 4.42311
rfemur 0 0 0
rtibia 0
rfoot 0 0
rtoes 0
lfemur -4.54855 -5.36866 -12.0791
ltibia 21.1398
lfoot -22.3127 13.9784
ltoes -55.4749
